<svg xmlns="http://www.w3.org/2000/svg" xmlns:xlink="http://www.w3.org/1999/xlink" width="108" height="108" viewBox="0 0 108 108">
  <defs>
    <filter id="Trazado_896985" x="0" y="0" width="108" height="108" filterUnits="userSpaceOnUse">
      <feOffset dy="3" input="SourceAlpha"/>
      <feGaussianBlur stdDeviation="3" result="blur"/>
      <feFlood flood-opacity="0.161"/>
      <feComposite operator="in" in2="blur"/>
      <feComposite in="SourceGraphic"/>
    </filter>
  </defs>
  <g id="Grupo_1109835" data-name="Grupo 1109835" transform="translate(-956.051 -4860.978)">
    <g id="Grupo_1109833" data-name="Grupo 1109833" transform="translate(0.295 418)">
      <g id="Grupo_1109826" data-name="Grupo 1109826" transform="translate(207.975 615.978)">
        <g id="Grupo_1098742" data-name="Grupo 1098742" transform="translate(-446.539 3444.258)">
          <g transform="matrix(1, 0, 0, 1, 1194.32, 382.74)" filter="url(#Trazado_896985)">
            <g id="Trazado_896985-2" data-name="Trazado 896985" transform="translate(9 6)" fill="#bfe7f2" opacity="0.859">
              <path d="M 44.99993896484375 88.5 C 39.12682723999023 88.5 33.4301872253418 87.35007476806641 28.06826400756836 85.08217620849609 C 22.88850212097168 82.89132690429688 18.23627662658691 79.75461578369141 14.2408390045166 75.75916290283203 C 10.24540138244629 71.76372528076172 7.108676433563232 67.11151123046875 4.917826652526855 61.9317512512207 C 2.649926424026489 56.56982421875 1.500001430511475 50.87317657470703 1.500001430511475 45.00006103515625 C 1.500001430511475 39.12682342529297 2.649926424026489 33.4301872253418 4.917826652526855 28.06826210021973 C 7.108676433563232 22.88850021362305 10.24540138244629 18.23628807067871 14.2408390045166 14.24083709716797 C 18.23628807067871 10.24540042877197 22.88850212097168 7.108675003051758 28.06826400756836 4.917825222015381 C 33.4301872253418 2.649924993515015 39.12682723999023 1.5 44.99993896484375 1.5 C 50.87305068969727 1.5 56.5697021484375 2.649924993515015 61.93162536621094 4.917825222015381 C 67.11138916015625 7.108675003051758 71.76360321044922 10.24540042877197 75.75904083251953 14.24083709716797 C 79.75448608398438 18.23627471923828 82.89120483398438 22.88850021362305 85.08205413818359 28.06826210021973 C 87.34995269775391 33.4301872253418 88.4998779296875 39.12682342529297 88.4998779296875 44.99993896484375 C 88.4998779296875 50.87317657470703 87.34995269775391 56.56982421875 85.08205413818359 61.9317512512207 C 82.89120483398438 67.11151123046875 79.75448608398438 71.76372528076172 75.75904083251953 75.75916290283203 C 71.76360321044922 79.75461578369141 67.11138916015625 82.89132690429688 61.93162536621094 85.08217620849609 C 56.5697021484375 87.35007476806641 50.87305068969727 88.5 44.99993896484375 88.5 Z" stroke="none"/>
              <path d="M 44.99993896484375 3 C 39.32865142822266 3 33.82860946655273 4.110054016113281 28.65258026123047 6.299331665039062 C 23.65162658691406 8.414558410644531 19.15966796875 11.44332885742188 15.30149841308594 15.30149841308594 C 11.44332122802734 19.15966796875 8.41455078125 23.65162658691406 6.299324035644531 28.65258407592773 C 4.110054016113281 33.82861328125 2.999992370605469 39.32865524291992 2.999992370605469 45.00005722045898 C 2.999992370605469 50.67134475708008 4.110054016113281 56.17138671875 6.299324035644531 61.347412109375 C 8.41455078125 66.34837341308594 11.44332122802734 70.84033203125 15.30149841308594 74.69850158691406 C 19.15966796875 78.55667114257812 23.65162658691406 81.58544158935547 28.65258026123047 83.70066833496094 C 33.82860946655273 85.88994598388672 39.32865142822266 87 44.99993896484375 87 C 50.67122650146484 87 56.17126846313477 85.88994598388672 61.34729766845703 83.70066833496094 C 66.34825134277344 81.58544158935547 70.8402099609375 78.55667114257812 74.69837951660156 74.69850158691406 C 78.55654907226562 70.84033203125 81.5853271484375 66.34837341308594 83.70055389404297 61.347412109375 C 85.88982391357422 56.17138671875 86.9998779296875 50.67134475708008 86.9998779296875 44.99994277954102 C 86.9998779296875 39.32865524291992 85.88982391357422 33.82861328125 83.70055389404297 28.65258407592773 C 81.5853271484375 23.65162658691406 78.55654907226562 19.15966796875 74.69837951660156 15.30149841308594 C 70.8402099609375 11.44332885742188 66.34825134277344 8.414558410644531 61.34729766845703 6.299331665039062 C 56.17126846313477 4.110054016113281 50.67122650146484 3 44.99993896484375 3 M 44.99993896484375 0 C 69.85272216796875 0 89.99988555908203 20.14715576171875 89.99988555908203 44.99994277954102 L 89.99988555908203 45.00005722045898 C 89.99988555908203 69.85284423828125 69.85272216796875 90 44.99993896484375 90 C 20.14715576171875 90 -7.62939453125e-06 69.85284423828125 -7.62939453125e-06 45.00005722045898 L -7.62939453125e-06 44.99994277954102 C -7.62939453125e-06 20.14715576171875 20.14715576171875 0 44.99993896484375 0 Z" stroke="none" fill="#fff"/>
            </g>
          </g>
          <g id="Rectángulo_400907" data-name="Rectángulo 400907" transform="translate(1203.32 388.742)" fill="none" stroke="#fff" stroke-width="3">
            <rect width="90" height="90" rx="45" stroke="none"/>
            <rect x="1.5" y="1.5" width="87" height="87" rx="43.5" fill="none"/>
          </g>
        </g>
      </g>
    </g>
    <g id="reshot-icon-thermometer-GM45P7TSUN" transform="translate(836.366 4879.362)">
      <path id="Trazado_900889" data-name="Trazado 900889" d="M191.741,60.269a10.986,10.986,0,1,1-19.226-7.263V16.324a8.24,8.24,0,0,1,8.24-8.24h0a8.24,8.24,0,0,1,8.24,8.24V53.006A10.941,10.941,0,0,1,191.741,60.269Z" transform="translate(-7.053 -7.054)" fill="#cbefdd"/>
      <path id="Trazado_900890" data-name="Trazado 900890" d="M191.389,63.016h.006a10.987,10.987,0,0,1-21.278-5.487,10.991,10.991,0,0,0,10.638,8.233V54.776H183.5V16.324a8.242,8.242,0,0,0-5.493-7.769,8.224,8.224,0,0,1,2.747-.471h0a8.24,8.24,0,0,1,8.24,8.24V53.006a10.949,10.949,0,0,1,2.394,10.009Z" transform="translate(-7.054 -7.054)" fill="#b8e0cd"/>
      <path id="Trazado_900891" data-name="Trazado 900891" d="M223.87,97.892a5.493,5.493,0,1,1-8.24-4.756V53.947a2.747,2.747,0,1,1,5.493,0V93.135A5.489,5.489,0,0,1,223.87,97.892Z" transform="translate(-44.676 -44.677)" fill="#e8f7ef"/>
      <path id="Trazado_900892" data-name="Trazado 900892" d="M223.87,229.571a5.493,5.493,0,1,1-8.24-4.756V204.852a2.747,2.747,0,0,1,5.493,0v19.963A5.489,5.489,0,0,1,223.87,229.571Z" transform="translate(-44.676 -176.356)" fill="#ff8657"/>
      <path id="Trazado_900893" data-name="Trazado 900893" d="M247.385,229.571a5.493,5.493,0,0,1-7.553,5.092,5.491,5.491,0,0,0,2.06-8.723V202.105a2.747,2.747,0,0,1,2.747,2.747v19.963A5.489,5.489,0,0,1,247.385,229.571Z" transform="translate(-68.191 -176.356)" fill="#cc5e61"/>
      <path id="Trazado_900894" data-name="Trazado 900894" d="M236.5,411.026a2.06,2.06,0,1,1,2.06-2.06A2.06,2.06,0,0,1,236.5,411.026Z" transform="translate(-63.488 -355.064)" fill="#ffb185"/>
      <path id="Trazado_900895" data-name="Trazado 900895" d="M165.461,14.42a1.03,1.03,0,0,0,1.03-1.03V9.27a7.21,7.21,0,0,1,14.419,0V42.229a1.03,1.03,0,1,0,2.06,0V9.27a9.27,9.27,0,1,0-18.539,0v4.12A1.03,1.03,0,0,0,165.461,14.42Zm17.252,30.851a1.03,1.03,0,0,0-1.545,1.363,9.956,9.956,0,1,1-14.934,0,1.03,1.03,0,0,0,.257-.681V17.509a1.03,1.03,0,1,0-2.06,0V45.573a12.016,12.016,0,1,0,18.282-.3Zm-5.236-36V47.9a6.523,6.523,0,1,1-7.553,0V9.27a3.777,3.777,0,0,1,7.553,0Zm-5.493,15.863a3.773,3.773,0,0,1,3.433,0V9.27a1.717,1.717,0,0,0-3.433,0Zm3.947,24.217a1.03,1.03,0,0,1-.514-.891V28.5a1.717,1.717,0,0,0-3.433,0V48.458a1.03,1.03,0,0,1-.514.891,4.463,4.463,0,1,0,4.462,0Z"/>
    </g>
  </g>
</svg>
