<svg xmlns="http://www.w3.org/2000/svg" xmlns:xlink="http://www.w3.org/1999/xlink" width="108" height="108" viewBox="0 0 108 108">
  <defs>
    <filter id="Trazado_896985" x="0" y="0" width="108" height="108" filterUnits="userSpaceOnUse">
      <feOffset dy="3" input="SourceAlpha"/>
      <feGaussianBlur stdDeviation="3" result="blur"/>
      <feFlood flood-opacity="0.161"/>
      <feComposite operator="in" in2="blur"/>
      <feComposite in="SourceGraphic"/>
    </filter>
  </defs>
  <g id="Grupo_1109827" data-name="Grupo 1109827" transform="translate(-542 -4442.978)">
    <g id="Grupo_1109825" data-name="Grupo 1109825" transform="translate(-205.781 615.978)">
      <g id="Grupo_1098742" data-name="Grupo 1098742" transform="translate(-446.539 3444.258)">
        <g transform="matrix(1, 0, 0, 1, 1194.32, 382.74)" filter="url(#Trazado_896985)">
          <g id="Trazado_896985-2" data-name="Trazado 896985" transform="translate(9 6)" fill="#cdd2dc" opacity="0.859">
            <path d="M 44.99993896484375 88.5 C 39.12682723999023 88.5 33.4301872253418 87.35007476806641 28.06826400756836 85.08217620849609 C 22.88850212097168 82.89132690429688 18.23627662658691 79.75461578369141 14.2408390045166 75.75916290283203 C 10.24540138244629 71.76372528076172 7.108676433563232 67.11151123046875 4.917826652526855 61.9317512512207 C 2.649926424026489 56.56982421875 1.500001430511475 50.87317657470703 1.500001430511475 45.00006103515625 C 1.500001430511475 39.12682342529297 2.649926424026489 33.4301872253418 4.917826652526855 28.06826210021973 C 7.108676433563232 22.88850021362305 10.24540138244629 18.23628807067871 14.2408390045166 14.24083709716797 C 18.23628807067871 10.24540042877197 22.88850212097168 7.108675003051758 28.06826400756836 4.917825222015381 C 33.4301872253418 2.649924993515015 39.12682723999023 1.5 44.99993896484375 1.5 C 50.87305068969727 1.5 56.5697021484375 2.649924993515015 61.93162536621094 4.917825222015381 C 67.11138916015625 7.108675003051758 71.76360321044922 10.24540042877197 75.75904083251953 14.24083709716797 C 79.75448608398438 18.23627471923828 82.89120483398438 22.88850021362305 85.08205413818359 28.06826210021973 C 87.34995269775391 33.4301872253418 88.4998779296875 39.12682342529297 88.4998779296875 44.99993896484375 C 88.4998779296875 50.87317657470703 87.34995269775391 56.56982421875 85.08205413818359 61.9317512512207 C 82.89120483398438 67.11151123046875 79.75448608398438 71.76372528076172 75.75904083251953 75.75916290283203 C 71.76360321044922 79.75461578369141 67.11138916015625 82.89132690429688 61.93162536621094 85.08217620849609 C 56.5697021484375 87.35007476806641 50.87305068969727 88.5 44.99993896484375 88.5 Z" stroke="none"/>
            <path d="M 44.99993896484375 3 C 39.32865142822266 3 33.82860946655273 4.110054016113281 28.65258026123047 6.299331665039062 C 23.65162658691406 8.414558410644531 19.15966796875 11.44332885742188 15.30149841308594 15.30149841308594 C 11.44332122802734 19.15966796875 8.41455078125 23.65162658691406 6.299324035644531 28.65258407592773 C 4.110054016113281 33.82861328125 2.999992370605469 39.32865524291992 2.999992370605469 45.00005722045898 C 2.999992370605469 50.67134475708008 4.110054016113281 56.17138671875 6.299324035644531 61.347412109375 C 8.41455078125 66.34837341308594 11.44332122802734 70.84033203125 15.30149841308594 74.69850158691406 C 19.15966796875 78.55667114257812 23.65162658691406 81.58544158935547 28.65258026123047 83.70066833496094 C 33.82860946655273 85.88994598388672 39.32865142822266 87 44.99993896484375 87 C 50.67122650146484 87 56.17126846313477 85.88994598388672 61.34729766845703 83.70066833496094 C 66.34825134277344 81.58544158935547 70.8402099609375 78.55667114257812 74.69837951660156 74.69850158691406 C 78.55654907226562 70.84033203125 81.5853271484375 66.34837341308594 83.70055389404297 61.347412109375 C 85.88982391357422 56.17138671875 86.9998779296875 50.67134475708008 86.9998779296875 44.99994277954102 C 86.9998779296875 39.32865524291992 85.88982391357422 33.82861328125 83.70055389404297 28.65258407592773 C 81.5853271484375 23.65162658691406 78.55654907226562 19.15966796875 74.69837951660156 15.30149841308594 C 70.8402099609375 11.44332885742188 66.34825134277344 8.414558410644531 61.34729766845703 6.299331665039062 C 56.17126846313477 4.110054016113281 50.67122650146484 3 44.99993896484375 3 M 44.99993896484375 0 C 69.85272216796875 0 89.99988555908203 20.14715576171875 89.99988555908203 44.99994277954102 L 89.99988555908203 45.00005722045898 C 89.99988555908203 69.85284423828125 69.85272216796875 90 44.99993896484375 90 C 20.14715576171875 90 -7.62939453125e-06 69.85284423828125 -7.62939453125e-06 45.00005722045898 L -7.62939453125e-06 44.99994277954102 C -7.62939453125e-06 20.14715576171875 20.14715576171875 0 44.99993896484375 0 Z" stroke="none" fill="#fff"/>
          </g>
        </g>
        <g id="Rectángulo_400907" data-name="Rectángulo 400907" transform="translate(1203.32 388.742)" fill="none" stroke="#fff" stroke-width="3">
          <rect width="90" height="90" rx="45" stroke="none"/>
          <rect x="1.5" y="1.5" width="87" height="87" rx="43.5" fill="none"/>
        </g>
      </g>
    </g>
    <g id="reshot-icon-flask-RW2HA6FJEP" transform="translate(520.18 4464.937)">
      <path id="Trazado_900861" data-name="Trazado 900861" d="M106,48.544h0A15.787,15.787,0,0,1,90.212,64.331H77.766A15.787,15.787,0,0,1,61.979,48.544h0a15.787,15.787,0,0,1,4.246-10.772L76.467,26.8A9.782,9.782,0,0,0,79.1,20.124V12.975a2.446,2.446,0,0,1-2.446-2.446h0A2.446,2.446,0,0,1,79.1,8.084H88.88a2.446,2.446,0,0,1,2.446,2.446h0a2.446,2.446,0,0,1-2.446,2.446v7.149A9.782,9.782,0,0,0,91.511,26.8l10.242,10.974A15.788,15.788,0,0,1,106,48.544Z" transform="translate(-7.168 -7.167)" fill="#cbefdd"/>
      <path id="Trazado_900862" data-name="Trazado 900862" d="M239.786,86.769h0A15.787,15.787,0,0,1,224,102.556h-4.453a15.349,15.349,0,0,0,15.349-15.349h0a15.348,15.348,0,0,0-4.128-10.473l-9.957-10.669a9.51,9.51,0,0,1-2.558-6.489V57.314a2.446,2.446,0,0,0-2.446-2.446h-2.921V51.2h9.782v7.149a9.782,9.782,0,0,0,2.631,6.674L235.54,76A15.788,15.788,0,0,1,239.786,86.769Z" transform="translate(-140.955 -45.392)" fill="#b8e0cd"/>
      <path id="Trazado_900863" data-name="Trazado 900863" d="M90.212,226.787H77.766A15.787,15.787,0,0,1,61.979,211h0a15.787,15.787,0,0,1,4.246-10.772l8.308-8.9h5.279a7.338,7.338,0,0,1,3.281.774l1.793.9a7.335,7.335,0,0,0,3.281.774h7.561l6.025,6.456A15.787,15.787,0,0,1,106,211h0A15.787,15.787,0,0,1,90.212,226.787Z" transform="translate(-7.168 -169.623)" fill="#79bd8f"/>
      <path id="Trazado_900864" data-name="Trazado 900864" d="M291.844,230.112h0A15.787,15.787,0,0,1,276.057,245.9H271.6a15.349,15.349,0,0,0,15.349-15.349h0a15.348,15.348,0,0,0-4.128-10.473l-6.714-7.194h5.462l6.025,6.456A15.787,15.787,0,0,1,291.844,230.112Z" transform="translate(-193.013 -188.734)" fill="#00a388"/>
      <path id="Trazado_900865" data-name="Trazado 900865" d="M150.158,273.119a3.668,3.668,0,1,1-3.668-3.668A3.668,3.668,0,0,1,150.158,273.119Zm14.673-3.668a3.668,3.668,0,1,0,3.668,3.668A3.668,3.668,0,0,0,164.831,269.45ZM155.66,256a3.668,3.668,0,1,0,3.668,3.668A3.668,3.668,0,0,0,155.66,256Z" transform="translate(-78.839 -226.959)" fill="#6d7d7d"/>
      <path id="Trazado_900866" data-name="Trazado 900866" d="M147.1,275.727a3.668,3.668,0,0,1-2.14,3.335,3.668,3.668,0,0,1,0-6.669A3.668,3.668,0,0,1,147.1,275.727Zm16.2-3.335a3.668,3.668,0,0,0,0,6.669,3.668,3.668,0,0,0,0-6.669Zm-9.171-13.45a3.668,3.668,0,0,0,0,6.669,3.668,3.668,0,0,0,0-6.669Z" transform="translate(-78.839 -229.567)" fill="#b8e0cd"/>
      <path id="Trazado_900867" data-name="Trazado 900867" d="M95.255,29.98,85.013,19.006a8.837,8.837,0,0,1-2.384-6.049V6.6A3.363,3.363,0,0,0,81.712,0H71.93a3.363,3.363,0,0,0-.917,6.6v6.359a8.836,8.836,0,0,1-2.384,6.049l-7.64,8.186a.917.917,0,1,0,1.341,1.251l5.434-5.823h4.88a6.454,6.454,0,0,1,2.871.678l1.793.9A8.3,8.3,0,0,0,81,25.067h7.163l5.753,6.164A14.87,14.87,0,0,1,83.044,56.247H70.6A14.87,14.87,0,0,1,59.727,31.231a.917.917,0,1,0-1.341-1.251A16.7,16.7,0,0,0,70.6,58.082H83.044a16.7,16.7,0,0,0,12.212-28.1ZM81,23.233a6.454,6.454,0,0,1-2.871-.678l-1.793-.9a8.3,8.3,0,0,0-3.691-.871H69.475l.494-.529a10.664,10.664,0,0,0,2.878-7.3V6.725h1.529a.917.917,0,1,0,0-1.834H71.93a1.528,1.528,0,0,1,0-3.057h9.782a1.528,1.528,0,1,1,0,3.057H78.044a.917.917,0,0,0,0,1.834H80.8v6.232a10.665,10.665,0,0,0,2.878,7.3l2.777,2.975ZM67.65,41.574a4.585,4.585,0,0,0-3.417,7.643A.917.917,0,1,0,65.6,47.994a2.751,2.751,0,1,1,2.051.917.917.917,0,1,0,0,1.834,4.593,4.593,0,0,0,4.493-3.668H81.5a4.586,4.586,0,1,0,4.493-5.5q-.213,0-.422.019l-5.059-6.165a4.585,4.585,0,1,0-7.38,0l-5.059,6.165Q67.864,41.574,67.65,41.574Zm18.342,1.834a2.751,2.751,0,1,1-2.751,2.751A2.754,2.754,0,0,1,85.992,43.408ZM76.821,29.958a2.751,2.751,0,1,1-2.751,2.751A2.754,2.754,0,0,1,76.821,29.958Zm-2.327,6.7a4.578,4.578,0,0,0,4.654,0l4.543,5.535A4.6,4.6,0,0,0,81.5,45.243H72.143a4.6,4.6,0,0,0-2.192-3.048Z"/>
    </g>
  </g>
</svg>
