<svg xmlns="http://www.w3.org/2000/svg" xmlns:xlink="http://www.w3.org/1999/xlink" width="108" height="108" viewBox="0 0 108 108">
  <defs>
    <filter id="Trazado_896985" x="0" y="0" width="108" height="108" filterUnits="userSpaceOnUse">
      <feOffset dy="3" input="SourceAlpha"/>
      <feGaussianBlur stdDeviation="3" result="blur"/>
      <feFlood flood-opacity="0.161"/>
      <feComposite operator="in" in2="blur"/>
      <feComposite in="SourceGraphic"/>
    </filter>
  </defs>
  <g id="Grupo_1109828" data-name="Grupo 1109828" transform="translate(-955.756 -4442.978)">
    <g id="Grupo_1109826" data-name="Grupo 1109826" transform="translate(207.975 615.978)">
      <g id="Grupo_1098742" data-name="Grupo 1098742" transform="translate(-446.539 3444.258)">
        <g transform="matrix(1, 0, 0, 1, 1194.32, 382.74)" filter="url(#Trazado_896985)">
          <g id="Trazado_896985-2" data-name="Trazado 896985" transform="translate(9 6)" fill="#fbd9ab" opacity="0.859">
            <path d="M 44.99993896484375 88.5 C 39.12682723999023 88.5 33.4301872253418 87.35007476806641 28.06826400756836 85.08217620849609 C 22.88850212097168 82.89132690429688 18.23627662658691 79.75461578369141 14.2408390045166 75.75916290283203 C 10.24540138244629 71.76372528076172 7.108676433563232 67.11151123046875 4.917826652526855 61.9317512512207 C 2.649926424026489 56.56982421875 1.500001430511475 50.87317657470703 1.500001430511475 45.00006103515625 C 1.500001430511475 39.12682342529297 2.649926424026489 33.4301872253418 4.917826652526855 28.06826210021973 C 7.108676433563232 22.88850021362305 10.24540138244629 18.23628807067871 14.2408390045166 14.24083709716797 C 18.23628807067871 10.24540042877197 22.88850212097168 7.108675003051758 28.06826400756836 4.917825222015381 C 33.4301872253418 2.649924993515015 39.12682723999023 1.5 44.99993896484375 1.5 C 50.87305068969727 1.5 56.5697021484375 2.649924993515015 61.93162536621094 4.917825222015381 C 67.11138916015625 7.108675003051758 71.76360321044922 10.24540042877197 75.75904083251953 14.24083709716797 C 79.75448608398438 18.23627471923828 82.89120483398438 22.88850021362305 85.08205413818359 28.06826210021973 C 87.34995269775391 33.4301872253418 88.4998779296875 39.12682342529297 88.4998779296875 44.99993896484375 C 88.4998779296875 50.87317657470703 87.34995269775391 56.56982421875 85.08205413818359 61.9317512512207 C 82.89120483398438 67.11151123046875 79.75448608398438 71.76372528076172 75.75904083251953 75.75916290283203 C 71.76360321044922 79.75461578369141 67.11138916015625 82.89132690429688 61.93162536621094 85.08217620849609 C 56.5697021484375 87.35007476806641 50.87305068969727 88.5 44.99993896484375 88.5 Z" stroke="none"/>
            <path d="M 44.99993896484375 3 C 39.32865142822266 3 33.82860946655273 4.110054016113281 28.65258026123047 6.299331665039062 C 23.65162658691406 8.414558410644531 19.15966796875 11.44332885742188 15.30149841308594 15.30149841308594 C 11.44332122802734 19.15966796875 8.41455078125 23.65162658691406 6.299324035644531 28.65258407592773 C 4.110054016113281 33.82861328125 2.999992370605469 39.32865524291992 2.999992370605469 45.00005722045898 C 2.999992370605469 50.67134475708008 4.110054016113281 56.17138671875 6.299324035644531 61.347412109375 C 8.41455078125 66.34837341308594 11.44332122802734 70.84033203125 15.30149841308594 74.69850158691406 C 19.15966796875 78.55667114257812 23.65162658691406 81.58544158935547 28.65258026123047 83.70066833496094 C 33.82860946655273 85.88994598388672 39.32865142822266 87 44.99993896484375 87 C 50.67122650146484 87 56.17126846313477 85.88994598388672 61.34729766845703 83.70066833496094 C 66.34825134277344 81.58544158935547 70.8402099609375 78.55667114257812 74.69837951660156 74.69850158691406 C 78.55654907226562 70.84033203125 81.5853271484375 66.34837341308594 83.70055389404297 61.347412109375 C 85.88982391357422 56.17138671875 86.9998779296875 50.67134475708008 86.9998779296875 44.99994277954102 C 86.9998779296875 39.32865524291992 85.88982391357422 33.82861328125 83.70055389404297 28.65258407592773 C 81.5853271484375 23.65162658691406 78.55654907226562 19.15966796875 74.69837951660156 15.30149841308594 C 70.8402099609375 11.44332885742188 66.34825134277344 8.414558410644531 61.34729766845703 6.299331665039062 C 56.17126846313477 4.110054016113281 50.67122650146484 3 44.99993896484375 3 M 44.99993896484375 0 C 69.85272216796875 0 89.99988555908203 20.14715576171875 89.99988555908203 44.99994277954102 L 89.99988555908203 45.00005722045898 C 89.99988555908203 69.85284423828125 69.85272216796875 90 44.99993896484375 90 C 20.14715576171875 90 -7.62939453125e-06 69.85284423828125 -7.62939453125e-06 45.00005722045898 L -7.62939453125e-06 44.99994277954102 C -7.62939453125e-06 20.14715576171875 20.14715576171875 0 44.99993896484375 0 Z" stroke="none" fill="#fff"/>
          </g>
        </g>
        <g id="Rectángulo_400907" data-name="Rectángulo 400907" transform="translate(1203.32 388.742)" fill="none" stroke="#fff" stroke-width="3">
          <rect width="90" height="90" rx="45" stroke="none"/>
          <rect x="1.5" y="1.5" width="87" height="87" rx="43.5" fill="none"/>
        </g>
      </g>
    </g>
    <g id="reshot-icon-scientist-NSUQ48DF69" transform="translate(980.281 4463.503)">
      <path id="Trazado_900868" data-name="Trazado 900868" d="M156.638,254.2v19.79H115.874V254.2a4.8,4.8,0,0,1,2.685-4.306l9.544-4.679h16.306l9.544,4.679A4.8,4.8,0,0,1,156.638,254.2Z" transform="translate(-102.985 -217.944)" fill="#cbefdd"/>
      <path id="Trazado_900869" data-name="Trazado 900869" d="M437.942,280.332v19.79h-3.6V278.683a5.2,5.2,0,0,0-1.962-4.066l2.874,1.409A4.8,4.8,0,0,1,437.942,280.332Z" transform="translate(-384.289 -244.072)" fill="#b8e0cd"/>
      <path id="Trazado_900870" data-name="Trazado 900870" d="M229.372,228.133l-6.9-.862-6.9.862a2.4,2.4,0,0,1-2.7-2.379v-12.87h19.183v12.87A2.4,2.4,0,0,1,229.372,228.133Z" transform="translate(-189.206 -189.205)" fill="#9acdb7"/>
      <path id="Trazado_900871" data-name="Trazado 900871" d="M265.591,191.337l-4.8,7.194-4.8-7.194v-10.79h9.591Z" transform="translate(-227.525 -160.465)" fill="#ffe9a4"/>
      <path id="Trazado_900872" data-name="Trazado 900872" d="M206.31,78.678l-1.078,2.461a12.053,12.053,0,0,1-11.04,7.217h0a12.053,12.053,0,0,1-11.04-7.217l-1.078-2.461a12.054,12.054,0,0,1-1.013-4.837V64.377a2.4,2.4,0,0,1,2.4-2.4h21.467a2.4,2.4,0,0,1,2.4,2.4v9.465A12.056,12.056,0,0,1,206.31,78.678Z" transform="translate(-160.922 -55.085)" fill="#ffb185"/>
      <path id="Trazado_900873" data-name="Trazado 900873" d="M183.458,61.979h18.689a2.4,2.4,0,0,1,2.4,2.4v9.465a12.053,12.053,0,0,1-1.013,4.837l-1.078,2.461a12.053,12.053,0,0,1-9.651,7.136,12.054,12.054,0,0,1-9.652-7.136l-1.078-2.461a12.054,12.054,0,0,1-1.013-4.837V64.377A2.4,2.4,0,0,1,183.458,61.979Z" transform="translate(-160.921 -55.085)" fill="#ffe9a4"/>
      <path id="Trazado_900874" data-name="Trazado 900874" d="M206.924,16.717v9.352h0a2.765,2.765,0,0,1-2.737-2.374l-.6-5.875a2.4,2.4,0,0,0-2.78-2.121l-2.308.385a28.984,28.984,0,0,1-4.763.394,28.982,28.982,0,0,1-4.763-.394l-2.308-.385a2.4,2.4,0,0,0-2.78,2.121l-.6,5.875a2.765,2.765,0,0,1-2.737,2.374h0V16.717a8.632,8.632,0,0,1,8.632-8.632h9.112A8.632,8.632,0,0,1,206.924,16.717Z" transform="translate(-160.465 -7.186)" fill="#f7da60"/>
      <path id="Trazado_900875" data-name="Trazado 900875" d="M323.8,16.718V26.07a2.765,2.765,0,0,1-2.737-2.374l-.38-3.722V16.718a8.632,8.632,0,0,0-8.632-8.632h3.117A8.632,8.632,0,0,1,323.8,16.718Z" transform="translate(-277.342 -7.187)" fill="#f7c343"/>
      <path id="Trazado_900876" data-name="Trazado 900876" d="M273.973,234.442a3.6,3.6,0,0,1-3.6,3.6h0a3.6,3.6,0,0,1-3.6-3.6Z" transform="translate(-237.105 -208.365)" fill="#ffb185"/>
      <path id="Trazado_900877" data-name="Trazado 900877" d="M266.779,234.442h7.194a3.586,3.586,0,0,1-.282,1.4,5.711,5.711,0,0,1-3.314,1h0a5.711,5.711,0,0,1-3.314-1A3.581,3.581,0,0,1,266.779,234.442Z" transform="translate(-237.105 -208.365)" fill="#fff"/>
      <path id="Trazado_900878" data-name="Trazado 900878" d="M190.161,118.272v3.6a2.4,2.4,0,0,1-2.4,2.4h-9.642a1.748,1.748,0,0,1-1.747-1.748v-.051a1.8,1.8,0,0,0-1.885-1.8,1.832,1.832,0,0,0-1.711,1.847h0a1.748,1.748,0,0,1-1.748,1.748h-9.642a2.4,2.4,0,0,1-2.4-2.4v-3.6a2.4,2.4,0,0,1,2.4-2.4h26.376A2.4,2.4,0,0,1,190.161,118.272Z" transform="translate(-141.305 -102.985)" fill="#9acdb7"/>
      <path id="Trazado_900879" data-name="Trazado 900879" d="M208.48,115.874h4.087v8.393H208.48Zm16.076,0v8.393h4.087v-8.393Z" transform="translate(-185.291 -102.985)" fill="#cbefdd"/>
      <path id="Trazado_900880" data-name="Trazado 900880" d="M63.189,333.581h0a2.4,2.4,0,0,1-2.4,2.4V343.2H53.6v-7.224a2.4,2.4,0,0,1-2.4-2.4h0a2.4,2.4,0,0,1,2.4-2.4h7.194A2.4,2.4,0,0,1,63.189,333.581Z" transform="translate(-45.505 -294.346)" fill="#b8e0cd"/>
      <path id="Trazado_900881" data-name="Trazado 900881" d="M111.089,333.581h0a2.4,2.4,0,0,1-2.4,2.4V343.2h-3.6v-7.224a2.4,2.4,0,0,0,2.4-2.4h0a2.4,2.4,0,0,0-2.4-2.4h3.6A2.4,2.4,0,0,1,111.089,333.581Z" transform="translate(-93.405 -294.346)" fill="#9acdb7"/>
      <path id="Trazado_900882" data-name="Trazado 900882" d="M43.764,427.005H32.3a2.663,2.663,0,0,1-2.663-2.663h0a2.663,2.663,0,0,1,.584-1.663l4.212-5.265h7.194l4.212,5.265a2.663,2.663,0,0,1,.584,1.663h0A2.663,2.663,0,0,1,43.764,427.005Z" transform="translate(-26.345 -370.985)" fill="#ff8657"/>
      <path id="Trazado_900883" data-name="Trazado 900883" d="M113.487,424.343h0a2.663,2.663,0,0,1-2.663,2.663h-3.6a2.663,2.663,0,0,0,2.663-2.663h0a2.663,2.663,0,0,0-.583-1.663l-4.212-5.265h3.6l4.212,5.265A2.662,2.662,0,0,1,113.487,424.343Z" transform="translate(-93.405 -370.985)" fill="#cc5e61"/>
      <path id="Trazado_900884" data-name="Trazado 900884" d="M8.393,33.39v-.12a.9.9,0,0,1,1.8,0v.12a.9.9,0,0,1-1.8,0Zm4.5-2.7a.9.9,0,0,0,.9-.9v-.12a.9.9,0,0,0-1.8,0v.12A.9.9,0,0,0,12.889,30.693Zm-2.4-3.6a.9.9,0,0,0,.9-.9v-.12a.9.9,0,0,0-1.8,0v.12A.9.9,0,0,0,10.491,27.1Zm27.276-1.019a4.5,4.5,0,1,1-8.992,0,.9.9,0,0,1,.9-.9h7.194A.9.9,0,0,1,37.766,26.077Zm-1.953.9H30.727a2.7,2.7,0,0,0,5.087,0ZM56.949,56.05a.9.9,0,0,1-.9.9h-4.8a.9.9,0,0,1,0-1.8h1.5V36.26a3.922,3.922,0,0,0-2.181-3.5l-7.147-3.5A12.964,12.964,0,0,1,37.4,33.494l-2.573,3.86,5.453.682a1.5,1.5,0,0,0,1.685-1.487V33.27a.9.9,0,0,1,1.8,0v3.278a3.3,3.3,0,0,1-3.706,3.272l-5.886-.736v2.578a.9.9,0,1,1-1.8,0V39.085l-5.885.736a3.3,3.3,0,0,1-3.706-3.272V32.221a.9.9,0,0,1,1.8,0v4.328a1.5,1.5,0,0,0,1.684,1.487l5.452-.682-2.573-3.86a12.964,12.964,0,0,1-6.026-4.236l-7.147,3.5a3.867,3.867,0,0,0-1.331,1.069.9.9,0,0,1-1.406-1.121,5.651,5.651,0,0,1,1.946-1.563l6.913-3.389a12.994,12.994,0,0,1-.684-1.344l-1.078-2.46a13,13,0,0,1-.634-1.8,3.3,3.3,0,0,1-2.91-3.274v-3.6a3.3,3.3,0,0,1,2.4-3.172V9.532A9.542,9.542,0,0,1,28.714,0h9.112a9.542,9.542,0,0,1,9.532,9.532v2.582a3.3,3.3,0,0,1,2.4,3.172v3.6a3.3,3.3,0,0,1-2.91,3.274,12.985,12.985,0,0,1-.634,1.8l-1.078,2.461a12.983,12.983,0,0,1-.684,1.344l6.913,3.389a5.732,5.732,0,0,1,3.188,5.114v18.89h1.5A.9.9,0,0,1,56.949,56.05ZM20.981,11.989h1.4l.148-1.446a3.3,3.3,0,0,1,3.822-2.917l2.308.385a28.212,28.212,0,0,0,9.23,0l2.308-.385a3.3,3.3,0,0,1,3.822,2.917l.148,1.446h1.4V9.532A7.742,7.742,0,0,0,37.826,1.8H28.714a7.742,7.742,0,0,0-7.733,7.733Zm8.743,8.393a.849.849,0,0,0,.848-.848,2.72,2.72,0,0,1,2.569-2.745q.066,0,.132,0a2.674,2.674,0,0,1,1.859.745,2.71,2.71,0,0,1,.836,1.952v.051a.849.849,0,0,0,.848.848h9.642a1.5,1.5,0,0,0,1.5-1.5v-3.6a1.5,1.5,0,0,0-1.5-1.5H35.069a.9.9,0,1,1,0-1.8h7.287l-.129-1.264A1.5,1.5,0,0,0,40.489,9.4l-2.308.385a29.963,29.963,0,0,1-4.911.406,29.955,29.955,0,0,1-4.911-.407L26.051,9.4a1.5,1.5,0,0,0-1.737,1.326l-.129,1.264h7.287a.9.9,0,0,1,0,1.8H20.082a1.5,1.5,0,0,0-1.5,1.5v3.6a1.5,1.5,0,0,0,1.5,1.5h9.642Zm5.127,13.691a13.115,13.115,0,0,1-3.163,0l1.581,2.372Zm8.635-8.38,1.078-2.46a11.17,11.17,0,0,0,.4-1.052H36.816a2.65,2.65,0,0,1-2.647-2.647v-.051a.9.9,0,0,0-.944-.9.936.936,0,0,0-.855.949,2.65,2.65,0,0,1-2.647,2.647H21.577a11.128,11.128,0,0,0,.4,1.052l1.078,2.46a11.155,11.155,0,0,0,6.9,6.175l.049.015a11.164,11.164,0,0,0,6.417.033.9.9,0,0,1,.3-.094A11.154,11.154,0,0,0,43.487,25.693ZM32.671,23.379h1.2a.9.9,0,0,0,0-1.8h-1.2a.9.9,0,0,0,0,1.8ZM48.557,56.05a.9.9,0,0,1-.9.9H.9a.9.9,0,0,1,0-1.8H2.866a3.56,3.56,0,0,1,.313-3.989l4.015-5.019V42.437a3.3,3.3,0,0,1,.9-6.47h7.194a3.3,3.3,0,0,1,.9,6.47v3.706L20.2,51.162a3.56,3.56,0,0,1,.313,3.989H22.78V44.061a.9.9,0,1,1,1.8,0v11.09h7.793V45.26a.9.9,0,0,1,1.8,0v9.891h7.793V44.061a.9.9,0,1,1,1.8,0v11.09h3.9A.9.9,0,0,1,48.557,56.05ZM8.093,40.764a.9.9,0,0,1,.9.9v3.9h5.4v-3h-2.7a.9.9,0,1,1,0-1.8h3.6a1.5,1.5,0,0,0,0-3H8.093a1.5,1.5,0,1,0,0,3Zm11.09,12.624a1.77,1.77,0,0,0-.386-1.1l-3.942-4.928H8.525L4.583,52.286A1.764,1.764,0,0,0,5.96,55.151H17.419A1.766,1.766,0,0,0,19.183,53.387Z"/>
    </g>
  </g>
</svg>
