<svg xmlns="http://www.w3.org/2000/svg" xmlns:xlink="http://www.w3.org/1999/xlink" width="108" height="108" viewBox="0 0 108 108">
  <defs>
    <filter id="Trazado_896985" x="0" y="0" width="108" height="108" filterUnits="userSpaceOnUse">
      <feOffset dy="3" input="SourceAlpha"/>
      <feGaussianBlur stdDeviation="3" result="blur"/>
      <feFlood flood-opacity="0.161"/>
      <feComposite operator="in" in2="blur"/>
      <feComposite in="SourceGraphic"/>
    </filter>
  </defs>
  <g id="Grupo_1109834" data-name="Grupo 1109834" transform="translate(-542 -4860.978)">
    <g id="Grupo_1109832" data-name="Grupo 1109832" transform="translate(0 418)">
      <g id="Grupo_1109825" data-name="Grupo 1109825" transform="translate(-205.781 615.978)">
        <g id="Grupo_1098742" data-name="Grupo 1098742" transform="translate(-446.539 3444.258)">
          <g transform="matrix(1, 0, 0, 1, 1194.32, 382.74)" filter="url(#Trazado_896985)">
            <g id="Trazado_896985-2" data-name="Trazado 896985" transform="translate(9 6)" fill="#bfe7f2" opacity="0.859">
              <path d="M 44.99993896484375 88.5 C 39.12682723999023 88.5 33.4301872253418 87.35007476806641 28.06826400756836 85.08217620849609 C 22.88850212097168 82.89132690429688 18.23627662658691 79.75461578369141 14.2408390045166 75.75916290283203 C 10.24540138244629 71.76372528076172 7.108676433563232 67.11151123046875 4.917826652526855 61.9317512512207 C 2.649926424026489 56.56982421875 1.500001430511475 50.87317657470703 1.500001430511475 45.00006103515625 C 1.500001430511475 39.12682342529297 2.649926424026489 33.4301872253418 4.917826652526855 28.06826210021973 C 7.108676433563232 22.88850021362305 10.24540138244629 18.23628807067871 14.2408390045166 14.24083709716797 C 18.23628807067871 10.24540042877197 22.88850212097168 7.108675003051758 28.06826400756836 4.917825222015381 C 33.4301872253418 2.649924993515015 39.12682723999023 1.5 44.99993896484375 1.5 C 50.87305068969727 1.5 56.5697021484375 2.649924993515015 61.93162536621094 4.917825222015381 C 67.11138916015625 7.108675003051758 71.76360321044922 10.24540042877197 75.75904083251953 14.24083709716797 C 79.75448608398438 18.23627471923828 82.89120483398438 22.88850021362305 85.08205413818359 28.06826210021973 C 87.34995269775391 33.4301872253418 88.4998779296875 39.12682342529297 88.4998779296875 44.99993896484375 C 88.4998779296875 50.87317657470703 87.34995269775391 56.56982421875 85.08205413818359 61.9317512512207 C 82.89120483398438 67.11151123046875 79.75448608398438 71.76372528076172 75.75904083251953 75.75916290283203 C 71.76360321044922 79.75461578369141 67.11138916015625 82.89132690429688 61.93162536621094 85.08217620849609 C 56.5697021484375 87.35007476806641 50.87305068969727 88.5 44.99993896484375 88.5 Z" stroke="none"/>
              <path d="M 44.99993896484375 3 C 39.32865142822266 3 33.82860946655273 4.110054016113281 28.65258026123047 6.299331665039062 C 23.65162658691406 8.414558410644531 19.15966796875 11.44332885742188 15.30149841308594 15.30149841308594 C 11.44332122802734 19.15966796875 8.41455078125 23.65162658691406 6.299324035644531 28.65258407592773 C 4.110054016113281 33.82861328125 2.999992370605469 39.32865524291992 2.999992370605469 45.00005722045898 C 2.999992370605469 50.67134475708008 4.110054016113281 56.17138671875 6.299324035644531 61.347412109375 C 8.41455078125 66.34837341308594 11.44332122802734 70.84033203125 15.30149841308594 74.69850158691406 C 19.15966796875 78.55667114257812 23.65162658691406 81.58544158935547 28.65258026123047 83.70066833496094 C 33.82860946655273 85.88994598388672 39.32865142822266 87 44.99993896484375 87 C 50.67122650146484 87 56.17126846313477 85.88994598388672 61.34729766845703 83.70066833496094 C 66.34825134277344 81.58544158935547 70.8402099609375 78.55667114257812 74.69837951660156 74.69850158691406 C 78.55654907226562 70.84033203125 81.5853271484375 66.34837341308594 83.70055389404297 61.347412109375 C 85.88982391357422 56.17138671875 86.9998779296875 50.67134475708008 86.9998779296875 44.99994277954102 C 86.9998779296875 39.32865524291992 85.88982391357422 33.82861328125 83.70055389404297 28.65258407592773 C 81.5853271484375 23.65162658691406 78.55654907226562 19.15966796875 74.69837951660156 15.30149841308594 C 70.8402099609375 11.44332885742188 66.34825134277344 8.414558410644531 61.34729766845703 6.299331665039062 C 56.17126846313477 4.110054016113281 50.67122650146484 3 44.99993896484375 3 M 44.99993896484375 0 C 69.85272216796875 0 89.99988555908203 20.14715576171875 89.99988555908203 44.99994277954102 L 89.99988555908203 45.00005722045898 C 89.99988555908203 69.85284423828125 69.85272216796875 90 44.99993896484375 90 C 20.14715576171875 90 -7.62939453125e-06 69.85284423828125 -7.62939453125e-06 45.00005722045898 L -7.62939453125e-06 44.99994277954102 C -7.62939453125e-06 20.14715576171875 20.14715576171875 0 44.99993896484375 0 Z" stroke="none" fill="#fff"/>
            </g>
          </g>
          <g id="Rectángulo_400907" data-name="Rectángulo 400907" transform="translate(1203.32 388.742)" fill="none" stroke="#fff" stroke-width="3">
            <rect width="90" height="90" rx="45" stroke="none"/>
            <rect x="1.5" y="1.5" width="87" height="87" rx="43.5" fill="none"/>
          </g>
        </g>
      </g>
    </g>
    <g id="reshot-icon-temperature-information-2689GZWL7K" transform="translate(570.966 4879.959)" style="isolation: isolate">
      <g id="Layer_1" data-name="Layer 1">
        <g id="Vector">
          <path id="Trazado_900896" data-name="Trazado 900896" d="M27.18,55.3A8.13,8.13,0,1,1,16.41,43.13a2.16,2.16,0,0,0,.8-1.69V10.77a4.35,4.35,0,0,1,7.43-3,4.3,4.3,0,0,1,1.26,3.05V41.43a2.16,2.16,0,0,0,.81,1.68,8.15,8.15,0,0,1,3,6.32,7.73,7.73,0,0,1-.24,1.93l3.74-6.48a12.42,12.42,0,0,0-2.93-4.43V10.77a8.705,8.705,0,0,0-17.41,0V40.46A12.49,12.49,0,1,0,31.79,56.58H26.43Z" fill="#0095e8"/>
          <path id="Trazado_900897" data-name="Trazado 900897" d="M25.9,10.77V35.82H17.21v-25a4.35,4.35,0,0,1,7.43-3,4.3,4.3,0,0,1,1.26,2.95Z" fill="#e2e2e2"/>
          <path id="Trazado_900898" data-name="Trazado 900898" d="M29.69,49.43a7.73,7.73,0,0,1-.24,1.93L27.18,55.3A8.13,8.13,0,1,1,16.41,43.13a2.16,2.16,0,0,0,.8-1.69V35.82H25.9v5.61a2.16,2.16,0,0,0,.81,1.68,8.15,8.15,0,0,1,2.98,6.32Z" fill="red"/>
          <path id="Trazado_900899" data-name="Trazado 900899" d="M54.94,56.58H26.43l.75-1.28,2.27-3.94,3.74-6.48.37-.64L40.69,31.9l7.12,12.34Z" fill="#fb0"/>
          <path id="Trazado_900900" data-name="Trazado 900900" d="M39.09,52.54a1.39,1.39,0,0,1,.12-.57,1.31,1.31,0,0,1,.33-.45,1.69,1.69,0,0,1,.5-.31,1.88,1.88,0,0,1,.65-.11,1.83,1.83,0,0,1,.64.11,1.62,1.62,0,0,1,.51.31,1.45,1.45,0,0,1,.33.45,1.56,1.56,0,0,1,0,1.15,1.425,1.425,0,0,1-.84.75,1.62,1.62,0,0,1-.64.11,1.67,1.67,0,0,1-.65-.11,1.48,1.48,0,0,1-.5-.3,1.31,1.31,0,0,1-.33-.45A1.4,1.4,0,0,1,39.09,52.54Zm2.78-2.64H39.55l-.37-8.48h3.06Z"/>
        </g>
        <g id="Line">
          <path id="Trazado_900901" data-name="Trazado 900901" d="M27.18,55.3A8.13,8.13,0,1,1,16.41,43.13a2.16,2.16,0,0,0,.8-1.69V10.77a4.35,4.35,0,0,1,7.43-3,4.3,4.3,0,0,1,1.26,3.05V41.43a2.16,2.16,0,0,0,.81,1.68,8.15,8.15,0,0,1,3,6.32,7.73,7.73,0,0,1-.24,1.93l3.74-6.48a12.42,12.42,0,0,0-2.93-4.43V10.77a8.705,8.705,0,0,0-17.41,0V40.46A12.49,12.49,0,1,0,31.79,56.58H26.43Z" fill="none" stroke="#000" stroke-linecap="round" stroke-linejoin="round" stroke-width="2"/>
          <path id="Trazado_900902" data-name="Trazado 900902" d="M25.9,10.77V35.82H17.21v-25a4.35,4.35,0,0,1,7.43-3,4.3,4.3,0,0,1,1.26,2.95Z" fill="none" stroke="#000" stroke-linecap="round" stroke-linejoin="round" stroke-width="2"/>
          <path id="Trazado_900903" data-name="Trazado 900903" d="M29.69,49.43a7.73,7.73,0,0,1-.24,1.93L27.18,55.3A8.13,8.13,0,1,1,16.41,43.13a2.16,2.16,0,0,0,.8-1.69V35.82H25.9v5.61a2.16,2.16,0,0,0,.81,1.68,8.15,8.15,0,0,1,2.98,6.32Z" fill="none" stroke="#000" stroke-miterlimit="10" stroke-width="2"/>
          <path id="Trazado_900904" data-name="Trazado 900904" d="M54.94,56.58H26.43l.75-1.28,2.27-3.94,3.74-6.48.37-.64L40.69,31.9l7.12,12.34Z" fill="none" stroke="#000" stroke-linecap="round" stroke-linejoin="round" stroke-width="2"/>
          <path id="Trazado_900905" data-name="Trazado 900905" d="M39.09,52.54a1.39,1.39,0,0,1,.12-.57,1.31,1.31,0,0,1,.33-.45,1.69,1.69,0,0,1,.5-.31,1.88,1.88,0,0,1,.65-.11,1.83,1.83,0,0,1,.64.11,1.62,1.62,0,0,1,.51.31,1.45,1.45,0,0,1,.33.45,1.56,1.56,0,0,1,0,1.15,1.425,1.425,0,0,1-.84.75,1.62,1.62,0,0,1-.64.11,1.67,1.67,0,0,1-.65-.11,1.48,1.48,0,0,1-.5-.3,1.31,1.31,0,0,1-.33-.45A1.4,1.4,0,0,1,39.09,52.54Zm2.78-2.64H39.55l-.37-8.48h3.06Z" fill="none"/>
        </g>
        <g id="Shadow" opacity="0.25" style="mix-blend-mode: multiply;isolation: isolate">
          <path id="Trazado_900906" data-name="Trazado 900906" d="M42.51,35.05,40.69,31.9l-5.13,8.88C33,45,30.8,48.15,29.27,50.29c-1.36,1.89-2.74,3.71-2.09,5,.51,1,2.05,1.27,3.05,1.33Q36.37,45.85,42.51,35.05Z"/>
          <path id="Trazado_900907" data-name="Trazado 900907" d="M14.06,49.43a12.5,12.5,0,0,1,3.79-9V10.77a8.71,8.71,0,0,1,6.23-8.32,8.81,8.81,0,0,0-2.51-.37,8.71,8.71,0,0,0-8.72,8.69V40.46a12.5,12.5,0,0,0,8.72,21.46A12.24,12.24,0,0,0,24,61.65a12.51,12.51,0,0,1-9.94-12.22Z"/>
        </g>
        <g id="Highligth" style="mix-blend-mode: overlay;isolation: isolate">
          <path id="Trazado_900908" data-name="Trazado 900908" d="M19,61.65a12,12,0,0,0,2.56.27,12.49,12.49,0,0,0,10.22-5.34h-5A12.5,12.5,0,0,1,19,61.65Z" fill="#fff" style="mix-blend-mode: overlay;isolation: isolate"/>
          <path id="Trazado_900909" data-name="Trazado 900909" d="M40.69,31.9l-2.5,4.33,4.62,8.01,7.13,12.34h5L47.81,44.24Z" fill="#fff" style="mix-blend-mode: overlay;isolation: isolate"/>
          <path id="Trazado_900910" data-name="Trazado 900910" d="M28.19,44.88l.37-.64.74,2.68c.24.35.86,1.12,1.57,1.09,1,0,2-1.58,2-3.9a23.7,23.7,0,0,1-2.39-5.4c-1.37-4.58-.93-8.24-.64-11.73a147.805,147.805,0,0,0,.43-16.21,8.71,8.71,0,0,0-8.69-8.69,8.52,8.52,0,0,0-2.49.37,8.72,8.72,0,0,1,6.18,8.32V40.45a12.42,12.42,0,0,1,2.92,4.43Z" fill="#fff" style="mix-blend-mode: overlay;isolation: isolate"/>
        </g>
      </g>
    </g>
  </g>
</svg>
