<svg xmlns="http://www.w3.org/2000/svg" width="60.935" height="64.95" viewBox="0 0 60.935 64.95">
  <g id="welder_9439182" transform="translate(-15.8 0.1)">
    <path id="Trazado_899670" data-name="Trazado 899670" d="M57.711,333.2l12.516,4.869a6.222,6.222,0,0,1,3.931,5.935v7.6a3.1,3.1,0,0,1-3.005,3.158H27.505A3.1,3.1,0,0,1,24.5,351.6v-7.6a6.222,6.222,0,0,1,3.931-5.935L40.947,333.2a5.416,5.416,0,0,1,5.009.469l3.373,2.054,3.373-2.054A5.416,5.416,0,0,1,57.711,333.2Z" transform="translate(-7.597 -290.682)" fill="#4e454d" fill-rule="evenodd"/>
    <path id="Trazado_899671" data-name="Trazado 899671" d="M99.8,434.573h30.56v-7.621a2.766,2.766,0,0,0-2.752-2.752H102.552a2.766,2.766,0,0,0-2.752,2.752Z" transform="translate(-73.348 -370.496)" fill="#ffaa5a" fill-rule="evenodd"/>
    <path id="Trazado_899672" data-name="Trazado 899672" d="M202.4,465.1a2.519,2.519,0,0,1,2.612,2.384v2.8H199.8V467.5A2.5,2.5,0,0,1,202.4,465.1Z" transform="translate(-160.667 -406.21)" fill="#007eb6" fill-rule="evenodd"/>
    <path id="Trazado_899673" data-name="Trazado 899673" d="M402,302.3h3.652v15.623H402Z" transform="translate(-337.227 -264.054)" fill="#c24441" fill-rule="evenodd"/>
    <path id="Trazado_899674" data-name="Trazado 899674" d="M448.512,225.421l-1.674,1.458a2.583,2.583,0,0,1-3.3-.013,1.868,1.868,0,0,1-.013-2.891l.025-.025a2.583,2.583,0,0,1,3.3.013Z" transform="translate(-372.897 -195.126)" fill="#ffc263" fill-rule="evenodd"/>
    <path id="Trazado_899675" data-name="Trazado 899675" d="M167.1,333.455a9.1,9.1,0,0,1-18.1,0l.659-.254a5.416,5.416,0,0,1,5.009.469l3.373,2.054,3.373-2.054a5.453,5.453,0,0,1,5.009-.469Z" transform="translate(-116.309 -290.682)" fill="#3f383e" fill-rule="evenodd"/>
    <path id="Trazado_899676" data-name="Trazado 899676" d="M162.6,238.8h14.633v11.59a7.317,7.317,0,0,1-14.633,0Z" transform="translate(-128.185 -208.606)" fill="#fbbd80" fill-rule="evenodd"/>
    <path id="Trazado_899677" data-name="Trazado 899677" d="M110.587,429.563a3.491,3.491,0,0,1-3.487-3.475V425a2.7,2.7,0,0,1,1.813-.685h5.148V426.1A3.469,3.469,0,0,1,110.587,429.563Zm25.209-4.578a2.7,2.7,0,0,0-1.813-.685h-5.148v1.788a3.474,3.474,0,1,0,6.949,0v-1.1Z" transform="translate(-79.723 -370.583)" fill="#e69951" fill-rule="evenodd"/>
    <path id="Trazado_899678" data-name="Trazado 899678" d="M116.612,351.323a2.617,2.617,0,0,0,2.612-2.612V335.7a.53.53,0,0,0-.127.051l-5.1,1.965v11.007A2.614,2.614,0,0,0,116.612,351.323Z" transform="translate(-85.748 -293.218)" fill="#ffc263" fill-rule="evenodd"/>
    <path id="Trazado_899679" data-name="Trazado 899679" d="M288.012,351.323a2.617,2.617,0,0,1-2.612-2.612V335.7a.53.53,0,0,1,.127.051l5.085,1.978v11.007A2.592,2.592,0,0,1,288.012,351.323Z" transform="translate(-235.413 -293.218)" fill="#ffc263" fill-rule="evenodd"/>
    <path id="Trazado_899680" data-name="Trazado 899680" d="M93.9,27.392h32.031V12.479a3.025,3.025,0,0,0-3.018-3.018h-1.522v-2.8a.625.625,0,0,0-.241-.495.6.6,0,0,0-.545-.114c-6.011,1.471-12.731.862-19.072.862A3.114,3.114,0,0,0,98.49,9.449H96.918A3.025,3.025,0,0,0,93.9,12.467Z" transform="translate(-68.196 -5.351)" fill="#323e4b" fill-rule="evenodd"/>
    <path id="Trazado_899681" data-name="Trazado 899681" d="M109.028,161.772H77.136a2.536,2.536,0,1,1,0-5.072h31.892a2.536,2.536,0,1,1,0,5.072Z" transform="translate(-51.344 -136.917)" fill="#fbbd80" fill-rule="evenodd"/>
    <path id="Trazado_899682" data-name="Trazado 899682" d="M177.233,247.892a14.767,14.767,0,0,1-14.633,0V242.3h14.633Z" transform="translate(-128.185 -211.662)" fill="#e2aa73" fill-rule="evenodd"/>
    <path id="Trazado_899683" data-name="Trazado 899683" d="M116.355,58.1h22.61a2.176,2.176,0,0,1,2.168,2.168V74.116a13.467,13.467,0,1,1-26.934,0V60.256a2.154,2.154,0,0,1,2.156-2.156Z" transform="translate(-85.921 -50.82)" fill="#d74b48" fill-rule="evenodd"/>
    <path id="Trazado_899684" data-name="Trazado 899684" d="M146,109h17.106a1,1,0,0,1,1,1v9.117a1,1,0,0,1-1,1H146a1,1,0,0,1-1-1V110A1,1,0,0,1,146,109Z" transform="translate(-112.817 -95.265)" fill="#008cca" fill-rule="evenodd"/>
    <path id="Trazado_899685" data-name="Trazado 899685" d="M416.4,302.3h1.826v15.623H416.4Z" transform="translate(-349.801 -264.054)" fill="#d74b48" fill-rule="evenodd"/>
    <path id="Trazado_899686" data-name="Trazado 899686" d="M386.986,417.1H391.3a2.517,2.517,0,0,1,2.511,2.511v2.346a2.517,2.517,0,0,1-2.511,2.511h-4.311a.882.882,0,0,1-.888-.888v-5.567A.888.888,0,0,1,386.986,417.1Z" transform="translate(-323.342 -364.296)" fill="#fbbd80" fill-rule="evenodd"/>
    <path id="Trazado_899687" data-name="Trazado 899687" d="M386.986,417.1h2.967v7.355h-2.967a.882.882,0,0,1-.888-.888V418A.885.885,0,0,1,386.986,417.1Z" transform="translate(-323.342 -364.296)" fill="#e2aa73" fill-rule="evenodd"/>
    <path id="Trazado_899688" data-name="Trazado 899688" d="M393.5,289h2.866a1.7,1.7,0,1,1,0,3.4H393.5a1.7,1.7,0,1,1,0-3.4Z" transform="translate(-328.321 -252.44)" fill="#e1e1e1" fill-rule="evenodd"/>
    <path id="Trazado_899689" data-name="Trazado 899689" d="M210.812,468.3a2.48,2.48,0,0,1,.431.038,2.346,2.346,0,0,1,1.1,1.953v2.79H208.2v-2.4A2.519,2.519,0,0,1,210.812,468.3Z" transform="translate(-168.002 -409.004)" fill="#008cca" fill-rule="evenodd"/>
    <path id="Trazado_899690" data-name="Trazado 899690" d="M127.6,426.888a.888.888,0,1,1,.888.888A.882.882,0,0,1,127.6,426.888Zm21.735,0a.888.888,0,1,1,.888.888A.882.882,0,0,1,149.335,426.888Z" transform="translate(-97.623 -372.068)" fill="#3f383e"/>
    <path id="Trazado_899691" data-name="Trazado 899691" d="M28.431,354.491a6.222,6.222,0,0,0-3.931,5.935v7.6a3.1,3.1,0,0,0,3.005,3.157h2.561v-7.773A6.222,6.222,0,0,1,34,357.471l1.864-.723V351.6Z" transform="translate(-7.597 -307.102)" fill="#3f383e" fill-rule="evenodd"/>
    <path id="Trazado_899692" data-name="Trazado 899692" d="M114,337.716v5.148l5.212-2.029V335.7a.531.531,0,0,0-.127.051Z" transform="translate(-85.748 -293.218)" fill="#ffaa5a" fill-rule="evenodd"/>
    <path id="Trazado_899693" data-name="Trazado 899693" d="M149.261,115.049V109H146a1,1,0,0,0-1,1v9.117a1,1,0,0,0,1,1h3.348a12.58,12.58,0,0,1-.089-1.56v-3.513Z" transform="translate(-112.817 -95.265)" fill="#007eb6" fill-rule="evenodd"/>
    <path id="Trazado_899694" data-name="Trazado 899694" d="M119.017,64.554h3.259V58.1h-6.011a2.176,2.176,0,0,0-2.168,2.168v12.6a25.759,25.759,0,0,0,.089,2.8,13.506,13.506,0,0,0,6.061,9.739,13.338,13.338,0,0,0,7.317,2.181,13.551,13.551,0,0,0,4.083-.634,13.545,13.545,0,0,1-9.295-11.273H119a1,1,0,0,1-1-1V65.569A1.017,1.017,0,0,1,119.017,64.554Z" transform="translate(-85.831 -50.82)" fill="#c24441" fill-rule="evenodd"/>
    <path id="Trazado_899695" data-name="Trazado 899695" d="M243.994,112.8l-4.223,7.317H236.5L242.916,109h.076a1,1,0,0,1,1,1Z" transform="translate(-192.714 -95.265)" fill="#7ecefd"/>
    <path id="Trazado_899696" data-name="Trazado 899696" d="M201.988,109l-6.416,11.121H192.3L198.716,109Z" transform="translate(-154.119 -95.265)" fill="#7ecefd"/>
    <path id="Trazado_899697" data-name="Trazado 899697" d="M157.1,78.188a.888.888,0,0,1,1.775,0V78.2a.882.882,0,0,1-.888.888A.893.893,0,0,1,157.1,78.188Zm-2.346,17.766a.888.888,0,1,1,1.775,0V97.64a.888.888,0,0,1-1.775,0Zm-3.6,0a.888.888,0,1,1,1.775,0V97.64a.888.888,0,1,1-1.775,0Zm-3.6,0a.888.888,0,1,1,1.775,0V97.64a.888.888,0,1,1-1.775,0Zm-3.6,0a.888.888,0,0,1,1.775,0V97.64a.888.888,0,0,1-1.775,0Zm-3.614,0a.888.888,0,1,1,1.775,0V97.64a.888.888,0,1,1-1.775,0ZM138,78.188a.888.888,0,0,1,1.775,0V78.2a.882.882,0,0,1-.888.888A.893.893,0,0,1,138,78.188Z" transform="translate(-106.704 -67.585)" fill="#454545"/>
    <g id="Grupo_1109139" data-name="Grupo 1109139" transform="translate(16.903 0.677)">
      <path id="Trazado_899698" data-name="Trazado 899698" d="M57.711,333.114l14.722,5.453c2.511.976,2.194,9.967,2.485,12.934a2.978,2.978,0,0,1-3.005,3.157H27.505A3.1,3.1,0,0,1,24.5,351.5v-7.6a6.222,6.222,0,0,1,3.931-5.935L40.947,333.1a5.416,5.416,0,0,1,5.009.469l3.373,2.054,3.373-2.054A5.562,5.562,0,0,1,57.711,333.114Z" transform="translate(-24.5 -291.272)" fill="#4e454d" fill-rule="evenodd"/>
      <path id="Trazado_899699" data-name="Trazado 899699" d="M99.8,434.573h30.56v-7.621a2.766,2.766,0,0,0-2.752-2.752H102.552a2.766,2.766,0,0,0-2.752,2.752Z" transform="translate(-90.251 -371.173)" fill="#62c5df" fill-rule="evenodd"/>
      <path id="Trazado_899700" data-name="Trazado 899700" d="M202.4,465.1a2.519,2.519,0,0,1,2.612,2.384v2.8H199.8V467.5A2.5,2.5,0,0,1,202.4,465.1Z" transform="translate(-177.57 -406.887)" fill="#007eb6" fill-rule="evenodd"/>
      <path id="Trazado_899701" data-name="Trazado 899701" d="M402,302.3h3.652v15.623H402Z" transform="translate(-354.131 -264.731)" fill="#c24441" fill-rule="evenodd"/>
      <path id="Trazado_899702" data-name="Trazado 899702" d="M448.512,225.421l-1.674,1.458a2.583,2.583,0,0,1-3.3-.013,1.868,1.868,0,0,1-.013-2.891l.025-.025a2.583,2.583,0,0,1,3.3.013Z" transform="translate(-389.8 -195.803)" fill="#ffc263" fill-rule="evenodd"/>
      <path id="Trazado_899703" data-name="Trazado 899703" d="M167.1,333.455a9.1,9.1,0,0,1-18.1,0l.659-.254a5.416,5.416,0,0,1,5.009.469l3.373,2.054,3.373-2.054a5.453,5.453,0,0,1,5.009-.469Z" transform="translate(-133.213 -291.359)" fill="#3f383e" fill-rule="evenodd"/>
      <path id="Trazado_899704" data-name="Trazado 899704" d="M162.6,238.8h14.633v11.59a7.317,7.317,0,0,1-14.633,0Z" transform="translate(-145.088 -209.283)" fill="#fbbd80" fill-rule="evenodd"/>
      <path id="Trazado_899705" data-name="Trazado 899705" d="M110.587,429.563a3.491,3.491,0,0,1-3.487-3.475V425a2.7,2.7,0,0,1,1.813-.685h5.148V426.1A3.469,3.469,0,0,1,110.587,429.563Zm25.209-4.578a2.7,2.7,0,0,0-1.813-.685h-5.148v1.788a3.474,3.474,0,1,0,6.949,0v-1.1Z" transform="translate(-96.626 -371.261)" fill="#62c5df" fill-rule="evenodd"/>
      <path id="Trazado_899706" data-name="Trazado 899706" d="M116.612,351.323a2.617,2.617,0,0,0,2.612-2.612V335.7a.53.53,0,0,0-.127.051l-5.1,1.965v11.007A2.614,2.614,0,0,0,116.612,351.323Z" transform="translate(-102.651 -293.896)" fill="#bfe7f2" fill-rule="evenodd"/>
      <path id="Trazado_899707" data-name="Trazado 899707" d="M288.012,351.323a2.617,2.617,0,0,1-2.612-2.612V335.7a.53.53,0,0,1,.127.051l5.085,1.978v11.007A2.592,2.592,0,0,1,288.012,351.323Z" transform="translate(-252.316 -293.896)" fill="#bfe7f2" fill-rule="evenodd"/>
      <path id="Trazado_899708" data-name="Trazado 899708" d="M93.9,27.392h32.031V12.479a3.025,3.025,0,0,0-3.018-3.018h-1.522v-2.8a.625.625,0,0,0-.241-.495.6.6,0,0,0-.545-.114c-6.011,1.471-12.731.862-19.072.862A3.114,3.114,0,0,0,98.49,9.449H96.918A3.025,3.025,0,0,0,93.9,12.467Z" transform="translate(-85.1 -6.029)" fill="#323e4b" fill-rule="evenodd"/>
      <path id="Trazado_899709" data-name="Trazado 899709" d="M109.028,161.772H77.136a2.536,2.536,0,1,1,0-5.072h31.892a2.536,2.536,0,1,1,0,5.072Z" transform="translate(-68.247 -137.594)" fill="#fbbd80" fill-rule="evenodd"/>
      <path id="Trazado_899710" data-name="Trazado 899710" d="M177.233,247.892a14.767,14.767,0,0,1-14.633,0V242.3h14.633Z" transform="translate(-145.088 -212.339)" fill="#e2aa73" fill-rule="evenodd"/>
      <path id="Trazado_899711" data-name="Trazado 899711" d="M116.355,58.1h22.61a2.176,2.176,0,0,1,2.168,2.168V74.116a13.467,13.467,0,1,1-26.934,0V60.256a2.154,2.154,0,0,1,2.156-2.156Z" transform="translate(-102.825 -51.497)" fill="#d74b48" fill-rule="evenodd"/>
      <path id="Trazado_899712" data-name="Trazado 899712" d="M146,109h17.106a1,1,0,0,1,1,1v9.117a1,1,0,0,1-1,1H146a1,1,0,0,1-1-1V110A1,1,0,0,1,146,109Z" transform="translate(-129.72 -95.943)" fill="#008cca" fill-rule="evenodd"/>
      <path id="Trazado_899713" data-name="Trazado 899713" d="M416.4,302.3h1.826v15.623H416.4Z" transform="translate(-366.705 -264.731)" fill="#d74b48" fill-rule="evenodd"/>
      <path id="Trazado_899714" data-name="Trazado 899714" d="M386.986,417.1H391.3a2.517,2.517,0,0,1,2.511,2.511v2.346a2.517,2.517,0,0,1-2.511,2.511h-4.311a.882.882,0,0,1-.888-.888v-5.567A.888.888,0,0,1,386.986,417.1Z" transform="translate(-340.245 -364.974)" fill="#fbbd80" fill-rule="evenodd"/>
      <path id="Trazado_899715" data-name="Trazado 899715" d="M386.986,417.1h2.967v7.355h-2.967a.882.882,0,0,1-.888-.888V418A.885.885,0,0,1,386.986,417.1Z" transform="translate(-340.245 -364.974)" fill="#e2aa73" fill-rule="evenodd"/>
      <path id="Trazado_899716" data-name="Trazado 899716" d="M393.5,289h2.866a1.7,1.7,0,1,1,0,3.4H393.5a1.7,1.7,0,1,1,0-3.4Z" transform="translate(-345.224 -253.117)" fill="#e1e1e1" fill-rule="evenodd"/>
      <path id="Trazado_899717" data-name="Trazado 899717" d="M210.812,468.3a2.48,2.48,0,0,1,.431.038,2.346,2.346,0,0,1,1.1,1.953v2.79H208.2v-2.4A2.519,2.519,0,0,1,210.812,468.3Z" transform="translate(-184.906 -409.681)" fill="#008cca" fill-rule="evenodd"/>
      <path id="Trazado_899718" data-name="Trazado 899718" d="M28.431,354.491a6.222,6.222,0,0,0-3.931,5.935v7.6a3.1,3.1,0,0,0,3.005,3.157h2.561v-7.773A6.222,6.222,0,0,1,34,357.471l1.864-.723V351.6Z" transform="translate(-24.5 -307.779)" fill="#3f383e" fill-rule="evenodd"/>
      <path id="Trazado_899719" data-name="Trazado 899719" d="M114,337.716v5.148l5.212-2.029V335.7a.531.531,0,0,0-.127.051Z" transform="translate(-102.651 -293.896)" fill="#62c5df" fill-rule="evenodd"/>
      <path id="Trazado_899720" data-name="Trazado 899720" d="M149.261,115.049V109H146a1,1,0,0,0-1,1v9.117a1,1,0,0,0,1,1h3.348a12.58,12.58,0,0,1-.089-1.56v-3.513Z" transform="translate(-129.72 -95.943)" fill="#007eb6" fill-rule="evenodd"/>
      <path id="Trazado_899721" data-name="Trazado 899721" d="M119.017,64.554h3.259V58.1h-6.011a2.176,2.176,0,0,0-2.168,2.168v12.6a25.759,25.759,0,0,0,.089,2.8,13.506,13.506,0,0,0,6.061,9.739,13.338,13.338,0,0,0,7.317,2.181,13.551,13.551,0,0,0,4.083-.634,13.545,13.545,0,0,1-9.295-11.273H119a1,1,0,0,1-1-1V65.569A1.017,1.017,0,0,1,119.017,64.554Z" transform="translate(-102.735 -51.497)" fill="#c24441" fill-rule="evenodd"/>
    </g>
    <path id="Trazado_899722" data-name="Trazado 899722" d="M243.994,112.8l-4.223,7.317H236.5L242.916,109h.076a1,1,0,0,1,1,1Z" transform="translate(-192.714 -95.265)" fill="#7ecefd"/>
    <path id="Trazado_899723" data-name="Trazado 899723" d="M201.988,109l-6.416,11.121H192.3L198.716,109Z" transform="translate(-154.119 -95.265)" fill="#7ecefd"/>
    <path id="Trazado_899724" data-name="Trazado 899724" d="M39.487,64.838H19.642a3.747,3.747,0,0,1-2.726-1.192A4.11,4.11,0,0,1,15.8,60.818V57.064a.761.761,0,1,1,1.522,0v3.753a2.568,2.568,0,0,0,.7,1.775,2.243,2.243,0,0,0,1.636.71h6.4v-6.86a3.453,3.453,0,0,1,.634-2,3.75,3.75,0,0,1,1.167-1.065v-8.5l-6.987,2.714a5.606,5.606,0,0,0-2.384,1.788,5.8,5.8,0,0,0-1.129,2.84.76.76,0,1,1-1.509-.19,7.25,7.25,0,0,1,1.433-3.576,6.878,6.878,0,0,1,3.043-2.283L33.2,41.163a6.892,6.892,0,0,1,.723-.241l.038-.013.051-.013V34.949A13.674,13.674,0,0,1,32.044,33.3a14.247,14.247,0,0,1-3.994-7.735h-1.9a3.3,3.3,0,0,1-.85-6.492V7.128a3.81,3.81,0,0,1,3.792-3.792h.989a3.9,3.9,0,0,1,1.154-1.648,3.831,3.831,0,0,1,2.46-.9c1.306,0,2.828.038,4.349.063,4.945.1,9.98.216,14.545-.913a1.549,1.549,0,0,1,.33-.038A1.416,1.416,0,0,1,54.273.965a1.574,1.574,0,0,1,.038.342V3.336h.761a3.81,3.81,0,0,1,3.792,3.792v12a3.348,3.348,0,0,1,1.5.862,3.3,3.3,0,0,1-2.333,5.63h-1.9a14.207,14.207,0,0,1-3.994,7.735A15.209,15.209,0,0,1,50.165,35v5.947c.025.013.063.013.089.025l.038.013q.342.1.685.228l12.871,5.009a3.8,3.8,0,0,1,.52.228V40.44a2.778,2.778,0,0,1-.583-.431,2.46,2.46,0,0,1,1.737-4.2h.672v-5.44a.763.763,0,0,1,.761-.761h2.688a2.554,2.554,0,0,1,.571-1.04c.089-.089.178-.19.279-.279a3.345,3.345,0,0,1,4.324-.013l1.661,1.458a.761.761,0,0,1,.076,1.065l-.076.076L74.79,32.324a3.188,3.188,0,0,1-2.143.774,3.3,3.3,0,0,1-2.156-.786,2.9,2.9,0,0,1-.279-.279,2.837,2.837,0,0,1-.533-.926H67.7V35.8h.672a2.458,2.458,0,0,1,1.154,4.628V52.3a3.2,3.2,0,0,1,1.065.71,3.269,3.269,0,0,1,.951,2.308V57.66a3.27,3.27,0,0,1-3.2,3.272,4.108,4.108,0,0,1-1.116,2.726,3.776,3.776,0,0,1-2.739,1.192H39.487ZM27.555,63.316H38.714V60.945l.013-.038v-.038l.013-.038.013-.038.013-.038.013-.038.013-.038a.047.047,0,0,1,.013-.038l.013-.038.013-.038c0-.013.013-.025.013-.038l.013-.038.013-.038.013-.038c0-.013.013-.025.013-.038a.047.047,0,0,0,.013-.038c0-.013.013-.025.013-.038l.013-.038.013-.038.013-.038.013-.038.013-.038.013-.038.013-.038.013-.038.013-.038.013-.038.013-.038.025-.038.013-.038.013-.038.025-.038.025-.038.025-.038.025-.038.025-.038.025-.038.025-.038c.013-.013.013-.025.025-.038l.025-.025.025-.038.025-.038.025-.025.025-.038.025-.025.025-.025.025-.038.025-.025.025-.025.025-.025.025-.025.025-.025.025-.025.025-.025L39.716,59l.025-.025.025-.025c.013-.013.025-.013.038-.025l.025-.025.025-.025.038-.025.025-.025.038-.025.025-.025.038-.025.038-.025L40.1,58.7l.038-.025.038-.025.038-.025.038-.025.038-.025.038-.013.038-.025.038-.013.038-.013.038-.025.038-.013.038-.013.038-.013.038-.013.038-.013.038-.013.038-.013.038-.013.038-.013.038-.013.038-.013.038-.013.038-.013.038-.013.038-.013.038-.013.038-.013.038-.013.038-.013.038-.013.038-.013.038-.013.038-.013.038-.013.038-.013.038-.013.038-.013.038-.013a.047.047,0,0,0,.038-.013h.038l.038-.013h.038l.038-.013h.418a3.567,3.567,0,0,1,2.27.9h.013l.013.013a3.006,3.006,0,0,1,1,2.194v2.067H56.594V56.4a1.976,1.976,0,0,0-.279-1.027v.063a3.373,3.373,0,0,1-6.746,0V54.414H34.58v1.027a3.373,3.373,0,0,1-6.746,0v-.063a2.019,2.019,0,0,0-.292,1.027v6.911Zm30.573,0h6.391a2.292,2.292,0,0,0,1.636-.71,2.605,2.605,0,0,0,.7-1.674H63.986a1.645,1.645,0,0,1-1.648-1.648V53.717a1.628,1.628,0,0,1,.482-1.167.277.277,0,0,1,.063-.051A1.652,1.652,0,0,1,64,52.068h.38V48.2a3.3,3.3,0,0,0-.355-.216,7.316,7.316,0,0,0-.71-.342L56.34,44.929v8.5a3.353,3.353,0,0,1,1.167,1.065,3.516,3.516,0,0,1,.634,2v6.822Zm-8.547-10.36V44.79a8.079,8.079,0,0,1-14.989,0v8.166Zm-5.656,8.293a1.524,1.524,0,0,0-.507-1.078,2.021,2.021,0,0,0-1.281-.507h-.406l-.025.013H41.63l-.025.013h-.051l-.025.013-.025.013h-.025l-.025.013-.025.013-.025.013-.025.013-.025.013-.025.013L41.3,59.8l-.025.013-.025.013-.013.013-.025.013-.025.013-.025.013-.013.013-.025.013-.013.013-.025.013-.013.013-.025.013-.013.013-.025.013L41,59.994l-.013.013-.013.013-.025.013-.013.013-.013.013-.013.013-.013.013-.013.013-.013.013-.013.013-.013.013-.013.013-.013.013-.013.013-.013.013-.013.013-.013.013-.013.013-.013.013c-.013.013-.025.013-.025.025l-.013.013-.013.013c-.013.013-.013.025-.025.025l-.013.013-.013.013-.013.013-.025.025-.013.013-.013.013-.013.013-.013.013-.013.013c-.013.013-.013.025-.025.038l-.013.013c-.013.013-.013.025-.025.038l-.013.013-.013.013-.013.013-.013.013-.013.013L40.4,60.6l-.013.013-.013.013-.013.013-.013.013-.013.013-.013.013-.013.013L40.3,60.7l-.013.013-.013.025-.013.013-.013.013v.013l-.013.013-.013.025v.013l-.013.013v.013l-.013.025V63.24h3.69V61.249ZM54.818,44.333,51.1,42.887V55.5a1.831,1.831,0,0,0,.545,1.306,1.884,1.884,0,0,0,1.306.545,1.831,1.831,0,0,0,1.306-.545,1.884,1.884,0,0,0,.545-1.306V44.5A.351.351,0,0,1,54.818,44.333Zm-21.76-1.446-3.715,1.446a.78.78,0,0,1,.013.178V55.517a1.831,1.831,0,0,0,.545,1.306,1.861,1.861,0,0,0,1.306.545,1.831,1.831,0,0,0,1.306-.545,1.884,1.884,0,0,0,.545-1.306ZM67.6,59.4h.7a1.735,1.735,0,0,0,1.23-.52,1.758,1.758,0,0,0,.52-1.23V55.3a1.735,1.735,0,0,0-.52-1.23,1.8,1.8,0,0,0-.888-.482c-.013,0-.013,0-.025-.013a2.471,2.471,0,0,0-.317-.025H63.986a.18.18,0,0,0-.076.025l-.013.013a.137.137,0,0,0-.038.089v5.567a.115.115,0,0,0,.038.089.137.137,0,0,0,.089.038H67.6Zm-15.42-4.59a.761.761,0,1,1,1.522,0v.013a.761.761,0,1,1-1.522,0Zm-21.722,0a.761.761,0,1,1,1.522,0v.013a.761.761,0,1,1-1.522,0ZM50.875,10.59a.761.761,0,1,1,1.522,0V10.6a.761.761,0,1,1-1.522,0Zm-19.11,0a.761.761,0,1,1,1.522,0V10.6a.761.761,0,1,1-1.522,0ZM48.529,28.381a.761.761,0,0,1,1.522,0v1.661a.761.761,0,1,1-1.522,0Zm-3.6,0a.761.761,0,0,1,1.522,0v1.661a.761.761,0,1,1-1.522,0Zm-3.6,0a.761.761,0,1,1,1.522,0v1.661a.761.761,0,1,1-1.522,0Zm-3.614,0a.761.761,0,1,1,1.522,0v1.661a.761.761,0,1,1-1.522,0Zm-3.6,0a.761.761,0,0,1,1.522,0v1.661a.761.761,0,0,1-1.522,0ZM68.019,40.706h-2.13V52.043h2.13Zm.368-3.386H65.521a.953.953,0,0,0-.938.938.9.9,0,0,0,.279.659.909.909,0,0,0,.431.241c.013,0,.013,0,.025.013a.985.985,0,0,0,.2.025h2.866a.985.985,0,0,0,.2-.025c.013,0,.013,0,.025-.013a.909.909,0,0,0,.431-.241.976.976,0,0,0,.279-.659.9.9,0,0,0-.279-.659A.921.921,0,0,0,68.387,37.321ZM33.528,12.974H50.634A1.775,1.775,0,0,1,52.4,14.736v9.117a1.775,1.775,0,0,1-1.763,1.763H33.528a1.775,1.775,0,0,1-1.763-1.763V14.736a1.765,1.765,0,0,1,.52-1.243A1.713,1.713,0,0,1,33.528,12.974ZM50.634,14.5H33.528a.241.241,0,0,0-.165.063.252.252,0,0,0-.076.165v9.117a.2.2,0,0,0,.076.165.241.241,0,0,0,.165.063H50.634a.217.217,0,0,0,.228-.228V14.724a.217.217,0,0,0-.228-.228ZM42.087,8.041a.761.761,0,0,1,0-1.522h11.3A2.922,2.922,0,0,1,56.3,9.449v9.574h1.027V7.128a2.251,2.251,0,0,0-2.257-2.257H53.55a.763.763,0,0,1-.761-.761V1.46C48.072,2.588,43,2.487,38,2.373c-1.382-.025-2.764-.051-4.324-.051A2.339,2.339,0,0,0,31.4,4.237a.75.75,0,0,1-.748.621H29.077a2.263,2.263,0,0,0-1.6.659,2.211,2.211,0,0,0-.659,1.6V19.01h1.027V9.436a2.944,2.944,0,0,1,2.929-2.929h6.4a.761.761,0,1,1,0,1.522h-6.4a1.386,1.386,0,0,0-1.395,1.395V23.27a13.381,13.381,0,0,0,.076,1.433c0,.025.013.051.013.076a12.689,12.689,0,0,0,3.639,7.469,12.847,12.847,0,0,0,2.042,1.661c.013.013.038.025.051.038a12.632,12.632,0,0,0,13.771,0c.013-.013.038-.025.051-.038a12.846,12.846,0,0,0,2.042-1.661A12.689,12.689,0,0,0,54.7,24.779a.161.161,0,0,1,.013-.076,13.384,13.384,0,0,0,.076-1.433V9.436a1.36,1.36,0,0,0-.418-.989,1.4,1.4,0,0,0-.989-.406Zm14.228,12.5V23.3c0,.266-.013.533-.025.8h1.737a1.818,1.818,0,0,0,1.255-.52,1.721,1.721,0,0,0,.52-1.255,1.776,1.776,0,0,0-1.725-1.775H56.315ZM48.643,35.913a14.149,14.149,0,0,1-13.112,0v5.871a6.556,6.556,0,0,0,13.112,0ZM27.872,24.095c-.013-.266-.025-.533-.025-.8V20.544H26.071a1.778,1.778,0,0,0-1.7,1.775,1.818,1.818,0,0,0,.52,1.255,1.721,1.721,0,0,0,1.255.52ZM73.8,31.183l1.027-.9-1-.875a1.748,1.748,0,0,0-1.154-.418,1.728,1.728,0,0,0-1.167.431,1.2,1.2,0,0,0-.127.127,1.072,1.072,0,0,0,.013,1.484l.127.127a1.748,1.748,0,0,0,1.154.418A1.7,1.7,0,0,0,73.8,31.183Z" transform="translate(0 0)"/>
  </g>
</svg>
